<?xml version="1.0" standalone="no"?>
<!DOCTYPE svg PUBLIC "-//W3C//DTD SVG 1.1//EN" "http://www.w3.org/Graphics/SVG/1.1/DTD/svg11.dtd" >
<svg xmlns="http://www.w3.org/2000/svg">
<metadata></metadata>
<defs>
<font id="neuzeitgroligregular" horiz-adv-x="1024" >
<font-face units-per-em="2048" ascent="1536" descent="-512" />
<missing-glyph horiz-adv-x="614" />
<glyph unicode="&#xfb01;" horiz-adv-x="1005" d="M43 846v96h141v166q0 124 60 190q67 70 166 70q20 0 36 -2v-86q-94 -10 -125 -44t-34 -128v-166h159v-96h-159v-846h-103v846h-141zM707 1206q0 32 22.5 55t54.5 23t54 -23t22 -57q0 -31 -22.5 -53.5t-53.5 -22.5q-32 0 -54.5 23t-22.5 55zM731 0v942h103v-942h-103z" />
<glyph unicode="&#xfb02;" horiz-adv-x="1005" d="M43 846v96h141v166q0 124 60 190q67 70 166 70q20 0 36 -2v-86q-94 -10 -125 -44t-34 -128v-166h159v-96h-159v-846h-103v846h-141zM731 0v1366h103v-1366h-103z" />
<glyph unicode="&#xfb03;" horiz-adv-x="1562" d="M41 846v96h141v166q0 124 60 190q67 70 166 70q20 0 36 -2v-86q-94 -10 -125 -44t-34 -128v-166h159v-96h-159v-846h-103v846h-141zM602 846v96h141v166q0 124 60 190q67 70 166 70q21 0 37 -2v-86q-94 -11 -125.5 -44.5t-34.5 -127.5v-166h160v-96h-160v-846h-103v846 h-141zM1266 1206q0 32 22.5 55t54.5 23t54 -23t22 -57q0 -31 -22.5 -53.5t-53.5 -22.5q-32 0 -54.5 23t-22.5 55zM1290 0v942h103v-942h-103z" />
<glyph horiz-adv-x="0" />
<glyph horiz-adv-x="682" />
<glyph unicode=" "  horiz-adv-x="614" />
<glyph unicode="&#x09;" horiz-adv-x="614" />
<glyph unicode="&#xa0;" horiz-adv-x="614" />
<glyph unicode="!" horiz-adv-x="495" d="M164 74q0 36 24 60t60 24q37 0 60.5 -24.5t23.5 -61.5q0 -34 -24.5 -58t-59.5 -24t-59.5 24.5t-24.5 59.5zM195 281v1085h106v-1085h-106z" />
<glyph unicode="&#x22;" horiz-adv-x="606" d="M115 1366h114l-14 -547h-86zM377 1366h117l-17 -547h-86z" />
<glyph unicode="#" d="M88 502l2 84h240l26 198h-221v86h234l57 414h90l-57 -414h180l59 414h84l-57 -414h211l-2 -86h-219l-29 -198h207l-2 -84h-217l-62 -447h-86l62 447h-182l-62 -447h-88l61 447h-229zM412 580h192l29 208h-191z" />
<glyph unicode="$" d="M115 309q0 29 2 45h92l2 -18v-25q9 -85 81 -148.5t163 -64.5v551q-86 33 -123.5 50t-73.5 42q-60 40 -96.5 110.5t-36.5 145.5q0 85 40.5 158.5t110.5 116.5q69 39 179 57v148h77v-148q149 -17 240 -109.5t88 -224.5h-100q-18 193 -228 228v-494q94 -37 130.5 -54.5 t74.5 -41.5q69 -46 110.5 -123.5t41.5 -163.5q0 -143 -95.5 -236t-261.5 -110v-197h-77v197q-67 4 -111 18.5t-92 47.5q-137 93 -137 243zM227 1001q0 -86 56 -145t172 -94v461q-110 -13 -169 -71t-59 -151zM532 98q90 5 146 43q49 32 77.5 86t28.5 113q0 93 -60.5 158.5 t-191.5 115.5v-516z" />
<glyph unicode="%" horiz-adv-x="1179" d="M82 31l954 1347l62 -41l-957 -1349zM106 844v57v223q-1 73 9 114t37 69q57 57 147 57q88 0 141 -53q32 -31 39.5 -61t7.5 -126v-225q0 -91 -28 -137q-22 -34 -66 -54t-98 -20q-80 0 -134.5 45t-54.5 111zM174 932q0 -67 3.5 -87.5t17.5 -39.5q15 -22 43 -34.5t59 -12.5 q74 0 106 53q17 33 17 111v223q0 149 -119 149q-71 0 -102 -39q-17 -20 -21 -41.5t-4 -91.5v-190zM692 156v57v223q-1 73 9 113.5t36 68.5q58 58 148 58q88 0 141 -53q32 -31 39.5 -61t7.5 -126v-225q0 -89 -29 -137q-22 -34 -66 -54t-97 -20q-80 0 -134.5 45t-54.5 111z M760 244q0 -68 3 -88t17 -39q15 -21 43.5 -34t59.5 -13q74 0 106 53q17 33 17 110v224q0 149 -119 149q-72 0 -103 -39q-17 -20 -20.5 -41t-3.5 -92v-190z" />
<glyph unicode="&#x26;" horiz-adv-x="1179" d="M96 365q0 124 72 213t268 208q-82 109 -104.5 155.5t-22.5 107.5q0 98 73 166.5t177 68.5q101 0 170.5 -66t69.5 -163q0 -54 -25.5 -108t-66.5 -89q-16 -14 -134 -96l291 -404q72 78 191 199l69 -68q-130 -127 -209 -208l209 -281h-106l-154 215q-133 -140 -211.5 -187.5 t-177.5 -47.5q-158 0 -268.5 112.5t-110.5 272.5zM199 354q0 -114 79 -195t189 -81q101 0 182 65q41 32 154 150l-311 418q-35 -25 -41 -29q-88 -58 -131 -93.5t-68 -70.5q-53 -80 -53 -164zM414 1051q0 -64 28 -109q13 -20 76 -104q109 69 142.5 110t33.5 105q0 61 -37 97 t-100 36q-65 0 -104 -37t-39 -98z" />
<glyph unicode="'" horiz-adv-x="346" d="M115 1366h118l-16 -547h-88z" />
<glyph unicode="(" horiz-adv-x="587" d="M96 442q0 266 92 509.5t267 445.5l65 -74q-323 -388 -323 -870q0 -233 85.5 -463.5t237.5 -401.5l-65 -71q-183 211 -271 437t-88 488z" />
<glyph unicode=")" horiz-adv-x="587" d="M68 -410q323 388 323 869q0 234 -85.5 463.5t-237.5 402.5l63 72q184 -211 272.5 -437t88.5 -489q0 -267 -92 -510t-269 -444z" />
<glyph unicode="*" horiz-adv-x="874" d="M123 1108l22 74l252 -74v254h76v-254l256 74l23 -74l-256 -80l151 -209l-55 -45l-158 211l-158 -211l-59 45l158 209z" />
<glyph unicode="+" d="M55 653v66h422v389h68v-389h422v-66h-422v-391h-68v391h-422z" />
<glyph unicode="," horiz-adv-x="440" d="M6 -322l201 492l98 -41l-219 -483z" />
<glyph unicode="-" horiz-adv-x="409" d="M0 446v97h410v-97h-410z" />
<glyph unicode="." horiz-adv-x="440" d="M137 74q0 36 24 60t60 24q37 0 60.5 -24.5t23.5 -61.5q0 -34 -24.5 -58t-59.5 -24t-59.5 24.5t-24.5 59.5z" />
<glyph unicode="/" horiz-adv-x="811" d="M-78 -451l690 1817h109l-690 -1817h-109z" />
<glyph unicode="0" d="M119 446v457q0 138 16 206.5t60 125.5q98 127 313 127q190 0 299 -100q56 -53 77 -118.5t21 -185.5v-548q0 -115 -20.5 -187t-67.5 -125q-109 -118 -307 -118q-201 0 -309 120q-50 56 -66 124t-16 222zM227 446q0 -135 11 -182t51 -92q85 -88 225 -88q72 0 134 27t97 73 q52 73 52 226v544q0 86 -19 137.5t-65 94.5q-80 71 -201 71q-76 0 -138 -29.5t-98 -84.5q-29 -43 -39 -92.5t-10 -151.5v-453z" />
<glyph unicode="1" d="M225 934v110l439 322v-1366h-109v1169z" />
<glyph unicode="2" d="M104 0l474 655q111 155 150.5 233.5t39.5 145.5q0 101 -73.5 165.5t-188.5 64.5q-77 0 -135.5 -33t-83.5 -90q-15 -30 -20 -60.5t-7 -87.5h-110q10 184 102.5 277.5t263.5 93.5q160 0 261.5 -91t101.5 -235q0 -82 -32.5 -158t-115.5 -192l-424 -579h531v-109h-734z" />
<glyph unicode="3" d="M61 270l103 35q38 -107 114.5 -164t182.5 -57q144 0 244 94.5t100 229.5q0 141 -96.5 228t-253.5 87q-54 0 -92.5 -11.5t-92.5 -43.5l-22 26l436 535h-520v108h745l-415 -512q16 2 38 2q162 0 276 -119.5t114 -289.5q0 -190 -128 -314t-325 -124q-151 0 -259 77t-149 213 z" />
<glyph unicode="4" d="M84 322v79l678 988v-959h178v-108h-178v-322h-109v322h-569zM209 430h444v643z" />
<glyph unicode="5" d="M70 244l110 41q39 -79 70 -113q38 -40 97.5 -63t123.5 -23q146 0 245 100.5t99 249.5q0 148 -96 241t-248 93q-89 0 -153.5 -30t-139.5 -107v704h537v-106l-428 -2v-395q105 40 213 40q188 0 310 -125t122 -317q0 -198 -129.5 -325t-331.5 -127q-165 0 -281 96 q-44 35 -69 70t-51 98z" />
<glyph unicode="6" d="M80 420q0 63 18 116.5t62 125.5l418 675h135l-351 -551q51 22 82.5 28.5t81.5 6.5q179 0 298.5 -117t119.5 -292q0 -180 -127 -307.5t-307 -127.5q-181 0 -305.5 128.5t-124.5 314.5zM197 414q0 -138 92 -235t223 -97q132 0 224.5 95t92.5 229q0 132 -91.5 224.5 t-221.5 92.5q-134 0 -226.5 -89.5t-92.5 -219.5z" />
<glyph unicode="7" d="M186 1229v108h734l-545 -1337h-125l504 1229h-568z" />
<glyph unicode="8" d="M96 373q0 177 115 289q36 34 73.5 53.5t104.5 38.5q-61 20 -94 38.5t-62 49.5q-77 86 -77 205q0 137 101.5 226t258.5 89q154 0 254 -89t100 -224q0 -129 -86 -215q-28 -28 -59 -44.5t-88 -35.5q67 -17 104.5 -36t73.5 -54q113 -110 113 -279q0 -179 -117.5 -293.5 t-300.5 -114.5q-181 0 -297.5 111.5t-116.5 284.5zM213 387q0 -126 88 -215.5t211 -89.5t211 89.5t88 215.5q0 125 -87 214t-208 89q-124 0 -213.5 -89t-89.5 -214zM268 1049q0 -97 70.5 -163.5t173.5 -66.5q97 0 171.5 68t74.5 157q0 88 -72.5 153t-171.5 65 q-109 0 -177.5 -59.5t-68.5 -153.5z" />
<glyph unicode="9" d="M80 932q0 180 127.5 305t310.5 125q180 0 302 -122.5t122 -303.5q0 -127 -68 -238l-419 -698h-138l345 551q-53 -21 -86 -28t-80 -7q-175 0 -295.5 120t-120.5 296zM195 936q0 -133 91 -226.5t222 -93.5q136 0 226.5 91.5t90.5 226.5q0 136 -89 229.5t-220 93.5 q-135 0 -228 -93t-93 -228z" />
<glyph unicode=":" horiz-adv-x="440" d="M137 74q0 36 24 60t60 24q37 0 60.5 -24.5t23.5 -61.5q0 -34 -24.5 -58t-59.5 -24t-59.5 24.5t-24.5 59.5zM137 621q0 36 24 60t60 24t60 -25t24 -62q0 -34 -24.5 -57.5t-59.5 -23.5t-59.5 24.5t-24.5 59.5z" />
<glyph unicode=";" horiz-adv-x="440" d="M6 -322l201 492l98 -41l-219 -483zM143 621q0 36 24 60t60 24t60 -25t24 -62q0 -34 -24.5 -57.5t-59.5 -23.5t-59.5 24.5t-24.5 59.5z" />
<glyph unicode="&#x3c;" d="M68 637v96l886 404v-111l-768 -342l768 -342v-109z" />
<glyph unicode="=" d="M55 512v66h912v-66h-912zM55 793v65h912v-65h-912z" />
<glyph unicode="&#x3e;" d="M70 233v109l768 342l-768 342v111l886 -404v-98z" />
<glyph unicode="?" horiz-adv-x="849" d="M78 1036q0 157 86.5 248.5t234.5 91.5t247 -99.5t99 -248.5q0 -103 -49 -184t-166 -170q-36 -28 -54 -43t-36 -41t-23.5 -43t-10.5 -61t-5.5 -83t0.5 -120h-94v75v66q0 86 13 136.5t47 92.5t106 99q97 73 131.5 130t34.5 142q0 110 -67.5 183t-168.5 73q-95 0 -160 -60.5 t-65 -148.5q0 -19 2 -35h-102zM276 74q0 36 24 60t60 24q37 0 60.5 -24.5t23.5 -61.5q0 -34 -24.5 -58t-59.5 -24t-59.5 24.5t-24.5 59.5z" />
<glyph unicode="@" horiz-adv-x="1955" d="M143 541q0 379 256 608q119 103 272 159t318 56q175 0 328.5 -60t262.5 -164t172 -251t63 -314q0 -130 -41.5 -237.5t-112.5 -161.5q-95 -76 -248 -76q-164 0 -164 84v103q-9 -15 -12 -21q-110 -166 -287 -166q-167 0 -273 118.5t-106 305.5q0 186 106 305t271 119 q64 0 129 -24t115 -66q13 -13 57 -70v146h94v-707q0 -22 14.5 -30.5t51.5 -8.5q107 0 166 37q66 38 103.5 128.5t37.5 213.5q0 200 -92 359.5t-257 248.5t-372 89q-213 0 -384 -92.5t-267 -256t-96 -366.5q0 -209 93 -371t261 -252t385 -90q78 0 197 27v-103 q-131 -24 -217 -24q-187 0 -361 79.5t-293 219.5q-170 197 -170 506zM676 520q0 -140 78 -231.5t198 -91.5q124 0 208.5 101.5t84.5 250.5q0 132 -82.5 217.5t-210.5 85.5q-123 0 -199.5 -92t-76.5 -240z" />
<glyph unicode="A" horiz-adv-x="1212" d="M14 0l537 1366h127l520 -1366h-129l-133 358h-660l-145 -358h-117zM319 465h576l-285 745z" />
<glyph unicode="B" horiz-adv-x="1105" d="M184 0v1366h359q190 0 301.5 -97t111.5 -263q0 -133 -73 -218q-25 -28 -54 -46.5t-86 -43.5q56 -10 88.5 -22.5t65.5 -36.5q121 -92 121 -268q0 -97 -40 -176t-112 -125q-63 -40 -140.5 -55t-215.5 -15h-326zM301 104h191q125 0 183.5 10t112.5 38q115 65 115 217 q0 135 -82.5 199.5t-257.5 64.5h-262v-529zM301 737h207q164 0 242 58q46 35 72 92t26 121q0 75 -32.5 134t-88.5 85q-44 21 -96 28t-166 7h-164v-525z" />
<glyph unicode="C" horiz-adv-x="1286" d="M96 682q0 201 83 363.5t229.5 254t328.5 91.5q299 0 494 -244l-86 -70q-71 79 -133 123q-124 84 -275 84q-224 0 -372 -171.5t-148 -432.5q0 -259 149.5 -428.5t376.5 -169.5q122 0 217.5 50.5t184.5 162.5l86 -76q-45 -62 -81 -95.5t-89 -64.5q-141 -84 -322 -84 q-139 0 -258 51t-205 148q-85 97 -132.5 231.5t-47.5 276.5z" />
<glyph unicode="D" horiz-adv-x="1265" d="M184 0v1366h351q293 0 463.5 -177t170.5 -478q0 -336 -182 -523.5t-508 -187.5h-295zM301 104h64q205 0 305 21.5t180 83.5q201 155 201 502q0 267 -135 409t-388 142h-227v-1158z" />
<glyph unicode="E" horiz-adv-x="978" d="M184 0v1366h686v-104h-569v-519h569v-104h-569v-535h569v-104h-686z" />
<glyph unicode="F" horiz-adv-x="923" d="M184 0v1366h678v-104h-561v-519h561v-104h-561v-639h-117z" />
<glyph unicode="G" horiz-adv-x="1478" d="M96 678q0 207 84 370t235 253t343 90q297 0 489 -242l-86 -72q-35 38 -49.5 53t-33 31.5t-36.5 28.5q-126 94 -288 94q-150 0 -274 -78.5t-194.5 -217t-70.5 -306.5t69 -305.5t190.5 -216t268.5 -78.5q126 0 247 64.5t192 168.5q46 67 65.5 136t22.5 170h-522v104h634 v-84q0 -189 -71 -328q-83 -160 -229.5 -249t-327.5 -89q-188 0 -338.5 90t-235 251t-84.5 362z" />
<glyph unicode="H" horiz-adv-x="1343" d="M184 0v1366h117v-635h741v635h117v-1366h-117v627h-741v-627h-117z" />
<glyph unicode="I" horiz-adv-x="485" d="M184 0v1366h117v-1366h-117z" />
<glyph unicode="J" horiz-adv-x="753" d="M47 0v98q51 -2 100 -2q160 0 240 74q52 45 72 117.5t20 212.5v762h-432v104h549v-975q-9 -220 -137 -311q-114 -81 -353 -81q-28 0 -59 1z" />
<glyph unicode="K" horiz-adv-x="1079" d="M184 0v1366h117v-647l606 647h144l-635 -686l635 -680h-162l-588 641v-641h-117z" />
<glyph unicode="L" horiz-adv-x="849" d="M184 0v1366h117v-1249h494v-117h-611z" />
<glyph unicode="M" horiz-adv-x="1675" d="M184 0v1366h95l557 -1126l563 1126h92v-1366h-117v1077l-538 -1077l-535 1079v-1079h-117z" />
<glyph unicode="N" horiz-adv-x="1390" d="M184 0v1366h97l809 -1120v1120h116v-1366h-88l-817 1137v-1137h-117z" />
<glyph unicode="O" horiz-adv-x="1497" d="M96 676q0 326 201 524q92 91 211.5 141t243.5 50q138 0 268 -63t227 -177q152 -180 152 -485q0 -164 -59 -301.5t-169 -229.5q-193 -160 -423 -160q-149 0 -289 70.5t-232 192.5q-131 173 -131 438zM215 684q0 -173 67.5 -310.5t188.5 -214.5t274 -77q111 0 215 46.5 t179 129.5q63 72 102 186t39 230q0 151 -39.5 261t-124.5 193q-74 72 -172 114t-194 42q-152 0 -274 -77.5t-191.5 -214.5t-69.5 -308z" />
<glyph unicode="P" horiz-adv-x="1064" d="M184 0v1366h330q241 0 363 -98q135 -110 135 -307q0 -101 -39 -187t-111 -141q-57 -44 -135 -64t-195 -20h-231v-549h-117zM301 653h209q117 0 188 25q90 28 144.5 104.5t54.5 175.5q0 102 -56 177.5t-153 103.5q-85 23 -217 23h-170v-609z" />
<glyph unicode="Q" horiz-adv-x="1509" d="M102 678q0 328 197 522q94 92 212.5 141.5t244.5 49.5q133 0 260 -56.5t219 -156.5q84 -90 129 -218.5t45 -275.5q0 -140 -33.5 -245t-109.5 -208l164 -176l-80 -78l-156 173q-95 -81 -176 -119q-134 -56 -262 -56q-134 0 -263 58t-227 160q-78 85 -121 212t-43 273z M221 684q0 -265 149 -433.5t384 -168.5q108 0 191 34t173 115l-102 115l74 70l98 -103q54 92 76 174.5t22 188.5q0 150 -46.5 271t-135.5 200q-156 137 -348 137q-122 0 -233.5 -56.5t-186.5 -156.5q-115 -152 -115 -387z" />
<glyph unicode="R" horiz-adv-x="1122" d="M184 0v1366h351q200 0 318 -104t118 -281q0 -124 -62 -219t-172 -141q-79 -33 -231 -33q-27 0 -47 2l612 -590h-160l-610 590v-590h-117zM301 680h197q172 0 263 75.5t91 219.5q0 142 -82.5 214.5t-243.5 72.5h-225v-582z" />
<glyph unicode="S" horiz-adv-x="970" d="M84 315v33h109q5 -99 38 -155q31 -53 91.5 -83t138.5 -30q137 0 221 77t84 201q0 101 -66 161.5t-239 115.5q-124 41 -173.5 65t-92.5 64q-105 94 -105 252q0 166 107.5 270.5t277.5 104.5q172 0 274.5 -102.5t102.5 -274.5h-113q-2 61 -9.5 94.5t-27.5 65.5 q-32 52 -93 82t-136 30q-116 0 -191 -74.5t-75 -189.5q0 -114 76 -174q32 -26 81 -47.5t168 -63.5q109 -39 166.5 -70.5t96.5 -74.5q84 -97 84 -234q0 -169 -114 -276t-294 -107q-201 0 -297 111q-90 99 -90 229z" />
<glyph unicode="T" horiz-adv-x="888" d="M27 1262v104h833v-104h-358v-1262h-117v1262h-358z" />
<glyph unicode="U" horiz-adv-x="1300" d="M158 547v819h116v-819q0 -149 24 -231.5t83 -135.5q47 -43 121.5 -70.5t142.5 -27.5q67 0 140 28t126 74q66 62 88.5 136t22.5 233v813h123v-819q0 -156 -25 -245.5t-90 -164.5q-68 -78 -166 -120t-213 -42q-118 0 -219 44.5t-170 127.5q-61 73 -82.5 155.5t-21.5 244.5z " />
<glyph unicode="V" horiz-adv-x="1110" d="M14 1366h125l412 -1173l420 1173h125l-496 -1366h-98z" />
<glyph unicode="W" horiz-adv-x="1765" d="M14 1366h123l361 -1141l342 1141h102l334 -1141l358 1141h119l-434 -1366h-84l-348 1165l-346 -1165h-86z" />
<glyph unicode="X" horiz-adv-x="1099" d="M14 0l471 682l-471 684h148l391 -586l395 586h139l-464 -684l464 -682h-139l-395 580l-391 -580h-148z" />
<glyph unicode="Y" horiz-adv-x="1054" d="M-6 1366h137l397 -643l396 643h137l-471 -766v-600h-117v600z" />
<glyph unicode="Z" horiz-adv-x="1089" d="M27 0l843 1262h-751v104h956l-846 -1262h756v-104h-958z" />
<glyph unicode="[" horiz-adv-x="587" d="M172 -451v1817h272v-76h-176v-1665h176v-76h-272z" />
<glyph unicode="\" horiz-adv-x="811" d="M88 1366h109l690 -1817h-109z" />
<glyph unicode="]" horiz-adv-x="587" d="M143 -375h176v1665h-176v76h273v-1817h-273v76z" />
<glyph unicode="^" d="M76 782l373 586h126l373 -586h-110l-328 510l-326 -510h-108z" />
<glyph unicode="_" d="M0 -158h1024v-78h-1024v78z" />
<glyph unicode="`" d="M260 1337h143l168 -262h-86z" />
<glyph unicode="a" horiz-adv-x="1148" d="M88 471q0 214 122 350.5t312 136.5q222 0 355 -190v174h102v-942h-102v209q-137 -225 -353 -225q-191 0 -313.5 136.5t-122.5 350.5zM195 465q0 -166 94 -275.5t235 -109.5q147 0 251 118.5t104 286.5q0 167 -97 272t-252 105q-85 0 -145 -29t-106 -92q-84 -117 -84 -276 z" />
<glyph unicode="b" horiz-adv-x="1140" d="M170 0v1366h102v-610q72 104 156 153t190 49q195 0 315 -135.5t120 -355.5q0 -212 -121.5 -347.5t-310.5 -135.5q-109 0 -193 47.5t-156 150.5v-182h-102zM270 475q0 -180 92 -287.5t246 -107.5q152 0 245 105.5t93 277.5q0 175 -93 287t-239 112q-152 0 -248 -108.5 t-96 -278.5z" />
<glyph unicode="c" horiz-adv-x="923" d="M88 471q0 215 127.5 351t327.5 136q192 0 325 -133l-63 -69q-115 106 -262 106q-155 0 -251.5 -107.5t-96.5 -279.5q0 -177 94 -286t246 -109q156 0 270 117l63 -74q-75 -73 -154.5 -106t-181.5 -33q-196 0 -320 136t-124 351z" />
<glyph unicode="d" horiz-adv-x="1140" d="M88 467q0 213 121 352t307 139q109 0 201 -47q47 -24 79 -51t72 -80v586h103v-1366h-103v182q-77 -104 -158.5 -151t-187.5 -47q-191 0 -312.5 135.5t-121.5 347.5zM195 465q0 -170 91.5 -277.5t237.5 -107.5q151 0 248.5 111.5t97.5 281.5q0 175 -91.5 282t-241.5 107 q-154 0 -248 -109.5t-94 -287.5z" />
<glyph unicode="e" horiz-adv-x="1087" d="M88 467q0 215 130 353t333 138q196 0 329.5 -133.5t133.5 -330.5q0 -8 -4 -66h-811q6 -67 20 -110t45 -87q51 -72 125 -111.5t160 -39.5q97 0 183.5 50.5t133.5 133.5l84 -45q-53 -106 -162.5 -170.5t-236.5 -64.5q-203 0 -333 135.5t-130 347.5zM203 524h698 q-4 61 -16.5 101.5t-38.5 81.5q-50 72 -128.5 113.5t-168.5 41.5q-91 0 -169 -42.5t-122 -117.5q-42 -66 -55 -178z" />
<glyph unicode="f" horiz-adv-x="501" d="M43 846v96h141v166q0 124 60 190q67 70 166 70q20 0 36 -2v-86q-94 -10 -125 -44t-34 -128v-166h159v-96h-159v-846h-103v846h-141z" />
<glyph unicode="g" horiz-adv-x="1146" d="M88 469q0 113 40 215t110 168q106 106 286 106q110 0 192 -46.5t158 -153.5v184h103v-987q0 -204 -119 -320t-330 -116q-259 0 -391 164l78 75q57 -63 90 -82q38 -25 102.5 -41t127.5 -16q79 0 151.5 27t116.5 73q71 77 71 236v252q-37 -61 -62 -91.5t-58 -56.5 q-101 -75 -236 -75q-183 0 -306.5 139t-123.5 346zM195 475q0 -171 95.5 -283t241.5 -112q72 0 141 33.5t122 93.5q34 41 54.5 115.5t20.5 154.5q0 98 -16 155.5t-57 108.5q-47 56 -116.5 88.5t-141.5 32.5q-152 0 -248 -108.5t-96 -278.5z" />
<glyph unicode="h" horiz-adv-x="1017" d="M170 0v1366h102v-569q66 83 137.5 122t159.5 39q62 0 122 -23t95 -61q68 -71 68 -235v-639h-102v647q0 104 -50 159.5t-145 55.5q-132 0 -217 -102q-38 -46 -53 -92.5t-15 -120.5v-547h-102z" />
<glyph unicode="i" horiz-adv-x="444" d="M145 1206q0 32 23 55t55 23t54 -23t22 -57q0 -31 -22.5 -53.5t-53.5 -22.5q-32 0 -55 23t-23 55zM170 0v942h102v-942h-102z" />
<glyph unicode="j" horiz-adv-x="444" d="M-45 -381h12q89 0 146 69.5t57 178.5v1075h102v-1075q0 -91 -16.5 -147.5t-56.5 -102.5q-39 -45 -96 -70.5t-117 -25.5h-31v98zM145 1206q0 32 23 55t55 23t54 -23t22 -57q0 -31 -22.5 -53.5t-53.5 -22.5q-32 0 -55 23t-23 55z" />
<glyph unicode="k" horiz-adv-x="876" d="M170 0v1366h102v-864l437 440h139l-469 -465l469 -477h-141l-435 436v-436h-102z" />
<glyph unicode="l" horiz-adv-x="444" d="M170 0v1366h102v-1366h-102z" />
<glyph unicode="m" horiz-adv-x="1558" d="M170 0l2 942h100v-137q58 81 122 117t149 36q109 0 178 -57q25 -20 41 -46t35 -75q54 95 125 136.5t180 41.5q174 0 246 -104q29 -44 38 -93t9 -165v-596h-103v565q0 120 -3.5 147.5t-24.5 61.5q-23 41 -73 64.5t-116 23.5q-117 0 -179 -76t-62 -221v-565h-103v565 q0 97 -10.5 148.5t-38.5 85.5q-54 63 -158 63q-117 0 -184.5 -80t-67.5 -217v-565h-102z" />
<glyph unicode="n" horiz-adv-x="1017" d="M170 0v942h102v-141q67 83 136.5 120t156.5 37q130 0 209 -73q44 -40 62 -91.5t18 -138.5v-655h-102v610q0 139 -39 189q-50 63 -160 63q-122 0 -205 -86q-43 -44 -59.5 -87.5t-16.5 -110.5v-578h-102z" />
<glyph unicode="o" horiz-adv-x="1099" d="M88 475q0 228 137 356q64 61 149.5 94t178.5 33q106 0 198 -42.5t158 -122.5q105 -128 105 -322q0 -205 -135 -346t-332 -141q-103 0 -198 43.5t-159 119.5q-102 121 -102 328zM195 469q0 -174 98.5 -281.5t257.5 -107.5q155 0 255.5 110.5t100.5 280.5q0 188 -106 291 q-47 46 -114 73t-134 27q-161 0 -259.5 -108t-98.5 -285z" />
<glyph unicode="p" horiz-adv-x="1144" d="M170 -451v1393h102v-201q72 118 154 167.5t207 49.5q192 0 309 -129t117 -342q0 -226 -118.5 -364.5t-311.5 -138.5q-111 0 -205 49q-48 25 -79 53t-73 84v-621h-102zM272 455q0 -168 94.5 -271.5t247.5 -103.5q152 0 244 108.5t92 288.5q0 181 -88 279 q-44 49 -108.5 77.5t-132.5 28.5q-157 0 -253 -112t-96 -295z" />
<glyph unicode="q" horiz-adv-x="1138" d="M88 479q0 219 119 349t319 130q112 0 193.5 -49t146.5 -155v188h103v-1393h-103v637q-72 -106 -155.5 -154t-194.5 -48q-99 0 -188.5 43t-149.5 120q-90 120 -90 332zM195 469q0 -173 91.5 -281t239.5 -108q151 0 242.5 106t91.5 279q0 190 -96 297q-46 46 -108.5 73 t-125.5 27q-149 0 -242 -109t-93 -284z" />
<glyph unicode="r" horiz-adv-x="632" d="M170 0v942h102v-170q23 50 41 75.5t47 49.5q77 61 191 61h41v-100h-35q-131 0 -211 -104q-74 -95 -75 -237q0 -12 1 -25v-492h-102z" />
<glyph unicode="s" horiz-adv-x="833" d="M78 262h104q6 -88 69 -137t169 -49q95 0 153 45t58 119q0 71 -53.5 113t-182.5 73q-153 37 -217 96q-37 32 -58.5 79.5t-21.5 98.5q0 115 88 186.5t228 71.5q143 0 226 -70t89 -194h-106q0 81 -55.5 125.5t-155.5 44.5q-95 0 -151 -42.5t-56 -114.5q0 -74 46.5 -111.5 t176.5 -69.5q96 -23 148.5 -47t87.5 -61q73 -73 73 -178q0 -116 -87.5 -186t-233.5 -70q-308 0 -338 278z" />
<glyph unicode="t" horiz-adv-x="505" d="M35 846v96h143v318h103v-318h153v-96h-153v-699q1 -35 13.5 -45t53.5 -10h86v-92h-110q-78 0 -111 30t-35 99v717h-143z" />
<glyph unicode="u" horiz-adv-x="962" d="M139 334v608h103v-608q0 -114 66 -184t173 -70q54 0 105.5 21.5t83.5 56.5q28 31 39.5 70t11.5 106v608h102v-608q0 -93 -19.5 -148t-68.5 -102q-100 -100 -252 -100q-155 0 -249.5 96t-94.5 254z" />
<glyph unicode="v" horiz-adv-x="858" d="M20 942h107l299 -803l307 803h105l-359 -942h-110z" />
<glyph unicode="w" horiz-adv-x="1378" d="M20 942h105l268 -756l246 756h102l236 -756l276 756h105l-348 -942h-76l-244 786l-256 -786h-82z" />
<glyph unicode="x" horiz-adv-x="876" d="M14 0l357 467l-357 475h129l293 -395l303 395h125l-364 -475l342 -467h-125l-281 387l-293 -387h-129z" />
<glyph unicode="y" horiz-adv-x="864" d="M20 942h109l285 -770l315 770h115l-580 -1409h-112l206 502z" />
<glyph unicode="z" horiz-adv-x="800" d="M51 0l539 846h-477v96h657l-532 -846h469v-96h-656z" />
<glyph unicode="{" d="M307 469v80q66 23 92.5 66t26.5 130v377q0 151 63.5 213t217.5 62h20v-94q-106 -3 -149 -48t-43 -151v-371q-3 -102 -26.5 -149.5t-84.5 -75.5q59 -28 85 -83t26 -151v-354q0 -117 41.5 -162t150.5 -47v-90h-16q-165 0 -225 64.5t-60 242.5v340q0 90 -26.5 134.5 t-92.5 66.5z" />
<glyph unicode="|" d="M457 -342v1708h108v-1708h-108z" />
<glyph unicode="}" d="M297 -285q106 3 149 48t43 151v371q1 101 25 149t86 76q-60 29 -85.5 82t-25.5 151v353q-1 118 -42 163t-150 48v90h16q164 0 224.5 -65t60.5 -242v-340q0 -90 26.5 -134.5t92.5 -66.5v-80q-66 -23 -92.5 -66.5t-26.5 -130.5v-376q0 -151 -63.5 -213t-217.5 -62h-20v94z " />
<glyph unicode="~" horiz-adv-x="1366" d="M195 1257q107 213 268 213q79 0 239 -86q87 -45 125.5 -59t77.5 -14q60 0 107 37.5t96 126.5l63 -50q-101 -213 -276 -213q-44 0 -89 17.5t-173 85.5q-108 57 -174 57q-58 0 -104 -37.5t-97 -126.5z" />
<glyph unicode="&#xa1;" horiz-adv-x="495" d="M164 879q0 34 24.5 58t59.5 24t59.5 -24.5t24.5 -59.5q0 -36 -24 -60t-60 -24q-37 0 -60.5 24.5t-23.5 61.5zM195 -416v1086h106v-1086h-106z" />
<glyph unicode="&#xa2;" d="M115 666q0 132 48 240.5t134 174.5q47 35 95.5 53.5t127.5 32.5v166h78v-166q85 -3 168 -43t129 -100l-64 -68q-115 109 -233 115v-784q130 0 233 112l64 -71q-67 -67 -132 -97.5t-165 -40.5v-157h-78v157q-199 34 -302 155.5t-103 320.5zM217 680q0 -164 81 -269 t222 -124v784q-144 -22 -223.5 -125t-79.5 -266z" />
<glyph unicode="&#xa3;" d="M129 0q-3 95 64 159.5t161 55.5q67 51 96 98.5t29 106.5q0 55 -27 103.5t-98 119.5h-225v88h147q-66 82 -89 136.5t-23 129.5q0 155 111.5 260t275.5 105q88 0 166 -36.5t127 -102.5q29 -38 41 -80.5t14 -108.5h-106v27q0 78 -78 139.5t-178 61.5q-106 0 -183.5 -75 t-77.5 -179q0 -61 33 -126.5t107 -150.5h317v-88h-246q56 -57 79.5 -106t23.5 -107q0 -115 -119 -240q29 -8 107 -45q106 -49 151 -49q50 0 79 31t32 88h110q-9 -83 -41 -127q-31 -45 -83.5 -74.5t-102.5 -29.5q-35 0 -78.5 14.5t-130.5 54.5q-79 36 -110.5 47t-61.5 11 q-99 0 -102 -111h-111z" />
<glyph unicode="&#xa4;" horiz-adv-x="1390" d="M152 1178l61 61l186 -186q82 60 149 85t148 25q80 0 148 -25t145 -85l189 186l61 -61l-186 -185q106 -140 106 -295q0 -78 -23.5 -144t-80.5 -144l184 -187l-59 -61l-187 186q-131 -108 -293 -108q-150 0 -297 108l-184 -186l-61 61l180 187q-105 135 -105 292 q0 78 24.5 144t82.5 145zM334 700q0 -151 105.5 -257.5t256.5 -106.5t257 106.5t106 257.5t-105.5 260t-253.5 109q-154 0 -260 -107t-106 -262z" />
<glyph unicode="&#xa5;" d="M63 1337h130l323 -624l311 624h131l-247 -477h207v-88l-252 2l-97 -186v-15h308v-88h-308v-485h-108v485h-316v88h316v15l-96 184h-261v88h213z" />
<glyph unicode="&#xa6;" d="M457 313h108v-655h-108v655zM457 692v674h108v-674h-108z" />
<glyph unicode="&#xa7;" d="M125 -61h104q6 -125 76.5 -196t188.5 -71q100 0 165.5 62.5t65.5 159.5q0 84 -70 145q-38 35 -75 50.5t-150 43.5q-148 37 -225.5 126.5t-77.5 223.5q0 270 248 361q-73 38 -114.5 107.5t-41.5 154.5q0 121 87.5 205t213.5 84q135 0 226 -78.5t98 -204.5h-107 q-7 83 -65 133.5t-144 50.5q-89 0 -149 -55.5t-60 -138.5q0 -79 60 -139q36 -33 64 -45.5t155 -53.5q144 -46 220.5 -143t76.5 -234q0 -226 -221 -325q87 -64 121 -122t34 -140q0 -141 -95.5 -232.5t-244.5 -91.5q-169 0 -272 115q-43 47 -67.5 106t-24.5 113v29zM231 498 q0 -124 78 -201.5t203 -77.5t203 77.5t78 201.5q0 108 -72 180q-42 40 -99.5 66t-107.5 26q-54 0 -110.5 -24.5t-100.5 -67.5q-72 -72 -72 -180z" />
<glyph unicode="&#xa8;" d="M240 1202q0 34 20.5 55t54.5 21q32 0 53 -22t21 -56q0 -31 -21.5 -52.5t-52.5 -21.5q-33 0 -54 21.5t-21 54.5zM635 1202q0 34 21 55t55 21q32 0 52.5 -22t20.5 -56q0 -31 -21 -52.5t-52 -21.5q-33 0 -54.5 21.5t-21.5 54.5z" />
<glyph unicode="&#xa9;" horiz-adv-x="1611" d="M102 682q0 194 95 357t259 256.5t359 93.5q187 0 347.5 -95.5t254.5 -258.5t94 -353q0 -143 -55.5 -273.5t-150 -225t-225 -150.5t-273.5 -56q-190 0 -352.5 94.5t-257.5 257t-95 353.5zM170 682q0 -174 85.5 -322t232.5 -234.5t319 -86.5q130 0 248 51t203 137.5 t135.5 206t50.5 250.5q0 172 -85 320.5t-230 235.5t-314 87q-133 0 -252.5 -50.5t-205.5 -136.5t-136.5 -205.5t-50.5 -252.5zM422 684q0 188 110 305t287 117q141 0 241.5 -79t113.5 -200h-64q-23 99 -100 155t-191 56q-143 0 -231 -98t-88 -256t87 -255t228 -97 q128 0 210 72.5t97 201.5h66q-12 -154 -115 -248t-258 -94q-175 0 -284 116.5t-109 303.5z" />
<glyph unicode="&#xaa;" horiz-adv-x="747" d="M63 831q0 129 78 212t199 83q133 0 211 -96v86h80v-569h-80v102q-83 -112 -209 -112q-123 0 -201 82.5t-78 211.5zM145 827q0 -94 56 -156.5t141 -62.5q87 0 149 68t62 164q0 97 -57.5 156t-149.5 59q-90 0 -145.5 -63t-55.5 -165z" />
<glyph unicode="&#xab;" horiz-adv-x="843" d="M96 479l213 352h99l-213 -352l213 -338h-99zM424 479l213 352h98l-213 -352l213 -338h-98z" />
<glyph unicode="&#xac;" d="M68 463v96h886v-559h-106v463h-780z" />
<glyph unicode="&#xad;" horiz-adv-x="409" d="M0 446v97h410v-97h-410z" />
<glyph unicode="&#xae;" horiz-adv-x="1611" d="M102 682q0 146 55.5 277t150.5 225t227.5 149.5t279.5 55.5q187 0 347.5 -95.5t254.5 -258.5t94 -353q0 -143 -55.5 -273.5t-150 -225t-225 -150.5t-273.5 -56q-190 0 -352.5 94.5t-257.5 257t-95 353.5zM170 682q0 -174 85.5 -322t232.5 -234.5t319 -86.5 q173 0 320 86.5t232 234.5t85 322q0 130 -50.5 249t-135 206t-200.5 138.5t-243 51.5q-133 0 -253 -50.5t-205.5 -136.5t-136 -205.5t-50.5 -252.5zM504 268v811h340q137 0 209.5 -57t72.5 -164q0 -71 -39 -122t-112 -77q83 -25 110 -75t29 -181q4 -68 8.5 -89.5t16.5 -45.5 h-78q-16 24 -21 148q-3 132 -46.5 172t-184.5 43h-229v-363h-76zM580 686h229q240 0 240 170q0 85 -54 125.5t-166 40.5h-249v-336z" />
<glyph unicode="&#xaf;" d="M240 1163v84h546v-84h-546z" />
<glyph unicode="&#xb0;" d="M233 1075q0 117 82 198t199 81q115 0 196 -82t81 -199q0 -115 -81.5 -196.5t-195.5 -81.5q-117 0 -199 81.5t-82 198.5zM295 1075q0 -91 64 -156t153 -65q88 0 152.5 63.5t64.5 151.5q0 95 -63.5 160t-155.5 65q-88 0 -151.5 -65t-63.5 -154z" />
<glyph unicode="&#xb1;" d="M55 137v66h912v-66h-912zM55 682v66h422v391h68v-391h422v-66h-422v-387h-68v387h-422z" />
<glyph unicode="&#xb2;" horiz-adv-x="669" d="M66 535l303 399q73 96 95.5 138t22.5 81q0 56 -43 90.5t-112 34.5q-75 0 -110 -37.5t-36 -120.5h-86q15 234 236 234q104 0 169.5 -55.5t65.5 -143.5q0 -51 -20 -96.5t-74 -114.5l-252 -330h320v-79h-479z" />
<glyph unicode="&#xb3;" horiz-adv-x="669" d="M45 709l78 24q50 -133 182 -133q86 0 145.5 52.5t59.5 129.5q0 78 -58 127t-153 49q-59 0 -117 -32l-22 26l264 305h-313v80h487l-256 -299q109 0 182.5 -72t73.5 -178q0 -115 -82 -190.5t-207 -75.5q-99 0 -167.5 48.5t-96.5 138.5z" />
<glyph unicode="&#xb4;" d="M453 1075l168 262h143l-225 -262h-86z" />
<glyph unicode="&#xb5;" d="M119 -336v1319h96v-571q0 -113 16 -170t62 -103q84 -84 205 -84q138 0 224.5 106t86.5 273v549h96v-983h-96v207q-47 -120 -124 -178t-189 -58q-94 0 -160.5 38t-120.5 124v-469h-96z" />
<glyph unicode="&#xb6;" d="M82 997q0 100 45.5 185t122.5 129q91 55 250 55h348v-1581h-96v1513h-166v-1513h-97v848h-32q-167 2 -271 102.5t-104 261.5z" />
<glyph unicode="&#xb7;" horiz-adv-x="440" d="M137 496q0 36 24 60t60 24q37 0 60.5 -24.5t23.5 -61.5q0 -34 -24.5 -58t-59.5 -24t-59.5 24.5t-24.5 59.5z" />
<glyph unicode="&#xb8;" d="M358 -383q86 54 133.5 118.5t73.5 164.5l103 -37q-55 -119 -110.5 -182.5t-154.5 -122.5z" />
<glyph unicode="&#xb9;" horiz-adv-x="669" d="M150 1077v84l288 201v-827h-84v682z" />
<glyph unicode="&#xba;" horiz-adv-x="716" d="M63 834q0 130 82.5 211t214.5 81q129 0 211 -83t82 -212q0 -124 -86 -209t-211 -85q-129 0 -211 82.5t-82 214.5zM145 829q0 -98 59 -159.5t154 -61.5q94 0 153.5 62.5t59.5 160.5q0 100 -58.5 162t-152.5 62q-97 0 -156 -62.5t-59 -163.5z" />
<glyph unicode="&#xbb;" horiz-adv-x="843" d="M109 156l213 352l-213 336h98l213 -336l-213 -352h-98zM436 156l213 352l-213 336h99l213 -336l-213 -352h-99z" />
<glyph unicode="&#xbc;" horiz-adv-x="1589" d="M150 1077v84l288 201v-827h-84v682zM287 16l956 1350l60 -43l-955 -1350zM981 190v58l436 604v-582h111v-80h-111v-190h-84v190h-352zM1083 270h250v344z" />
<glyph unicode="&#xbd;" horiz-adv-x="1589" d="M150 1077v84l288 201v-827h-84v682zM287 16l956 1350l60 -43l-955 -1350zM985 0l303 397q74 98 96.5 139t22.5 80q0 55 -43.5 90t-112.5 35q-75 0 -109.5 -37t-35.5 -120h-84q6 118 64 175.5t171 57.5q103 0 168.5 -55.5t65.5 -143.5q0 -50 -20.5 -96t-73.5 -114 l-252 -328h319v-80h-479z" />
<glyph unicode="&#xbe;" horiz-adv-x="1589" d="M45 709l78 24q50 -133 182 -133q86 0 145.5 52.5t59.5 129.5q0 78 -58 127t-153 49q-59 0 -117 -32l-22 26l264 305h-313v80h487l-256 -299q109 0 182.5 -72t73.5 -178q0 -115 -82 -190.5t-207 -75.5q-99 0 -167.5 48.5t-96.5 138.5zM287 16l954 1350l62 -43l-957 -1350z M981 190v58l436 604v-582h111v-80h-111v-190h-84v190h-352zM1083 270h250v344z" />
<glyph unicode="&#xbf;" horiz-adv-x="849" d="M102 -80q0 103 49 184t166 170q96 75 113 127.5t16 264.5h97l-2 -76v-66q1 -123 -30 -184t-136 -143q-96 -73 -131 -130t-35 -141q0 -112 66.5 -185t168.5 -73q95 0 160.5 61t65.5 150q0 19 -2 35h102q0 -157 -86.5 -249.5t-232.5 -92.5q-149 0 -249 99.5t-100 248.5z M406 879q0 34 24 58t59 24t59.5 -24.5t24.5 -59.5q0 -36 -24 -60t-60 -24t-59.5 24.5t-23.5 61.5z" />
<glyph unicode="&#xc0;" horiz-adv-x="1212" d="M14 0l537 1366h127l520 -1366h-129l-133 358h-660l-145 -358h-117zM319 465h576l-285 745zM350 1731h146l176 -267h-94z" />
<glyph unicode="&#xc1;" horiz-adv-x="1212" d="M14 0l537 1366h127l520 -1366h-129l-133 358h-660l-145 -358h-117zM319 465h576l-285 745zM541 1464l176 267h145l-227 -267h-94z" />
<glyph unicode="&#xc2;" horiz-adv-x="1212" d="M14 0l537 1366h127l520 -1366h-129l-133 358h-660l-145 -358h-117zM319 465h576l-285 745zM346 1464l217 271h94l211 -271h-110l-152 185l-149 -185h-111z" />
<glyph unicode="&#xc3;" horiz-adv-x="1212" d="M14 0l537 1366h127l520 -1366h-129l-133 358h-660l-145 -358h-117zM309 1534q52 89 92 122.5t91 33.5q29 0 58 -11.5t91 -46.5q74 -41 102 -41q60 0 109 97l80 -56q-53 -74 -97.5 -106.5t-95.5 -32.5q-32 0 -58.5 10.5t-82.5 44.5q-63 37 -96 37q-68 0 -113 -96zM319 465 h576l-285 745z" />
<glyph unicode="&#xc4;" horiz-adv-x="1212" d="M14 0l537 1366h127l520 -1366h-129l-133 358h-660l-145 -358h-117zM317 1595q0 37 24.5 61.5t61.5 24.5q35 0 59.5 -24.5t24.5 -61.5q0 -35 -24.5 -59.5t-59.5 -24.5q-37 0 -61.5 24.5t-24.5 59.5zM319 465h576l-285 745zM727 1595q0 37 24.5 61.5t61.5 24.5 q35 0 59.5 -24.5t24.5 -61.5q0 -35 -24.5 -59.5t-59.5 -24.5q-37 0 -61.5 24.5t-24.5 59.5z" />
<glyph unicode="&#xc5;" horiz-adv-x="1212" d="M14 0l537 1366h127l520 -1366h-129l-133 358h-660l-145 -358h-117zM319 465h576l-285 745zM457 1606q0 63 43.5 106t107.5 43q63 0 106.5 -43.5t43.5 -109.5q0 -61 -44 -104.5t-106 -43.5q-64 0 -107.5 43.5t-43.5 108.5zM508 1606q0 -43 28.5 -72t71.5 -29q41 0 70 29 t29 70q0 43 -28 71.5t-71 28.5t-71.5 -27.5t-28.5 -70.5z" />
<glyph unicode="&#xc6;" horiz-adv-x="1624" d="M-8 0l778 1366h750v-104h-566v-519h566v-104h-566v-535h566v-104h-682v379h-510l-213 -379h-123zM385 483h453v805z" />
<glyph unicode="&#xc7;" horiz-adv-x="1286" d="M96 682q0 201 83 363.5t229.5 254t328.5 91.5q299 0 494 -244l-86 -70q-71 79 -133 123q-124 84 -275 84q-224 0 -372 -171.5t-148 -432.5q0 -259 149.5 -428.5t376.5 -169.5q122 0 217.5 50.5t184.5 162.5l86 -76q-45 -62 -81 -95.5t-89 -64.5q-141 -84 -322 -84 q-139 0 -258 51t-205 148q-85 97 -132.5 231.5t-47.5 276.5zM520 -369q76 60 114 115.5t60 138.5l115 -43q-52 -151 -221 -266z" />
<glyph unicode="&#xc8;" horiz-adv-x="978" d="M184 0v1366h686v-104h-569v-519h569v-104h-569v-535h569v-104h-686zM233 1731h146l176 -267h-94z" />
<glyph unicode="&#xc9;" horiz-adv-x="978" d="M184 0v1366h686v-104h-569v-519h569v-104h-569v-535h569v-104h-686zM424 1464l176 267h145l-227 -267h-94z" />
<glyph unicode="&#xca;" horiz-adv-x="978" d="M184 0v1366h686v-104h-569v-519h569v-104h-569v-535h569v-104h-686zM229 1464l217 271h95l211 -271h-111l-152 185l-149 -185h-111z" />
<glyph unicode="&#xcb;" horiz-adv-x="978" d="M184 0v1366h686v-104h-569v-519h569v-104h-569v-535h569v-104h-686zM201 1595q0 37 24.5 61.5t61.5 24.5q35 0 59.5 -24.5t24.5 -61.5q0 -35 -24.5 -59.5t-59.5 -24.5q-37 0 -61.5 24.5t-24.5 59.5zM610 1595q0 37 24.5 61.5t61.5 24.5q35 0 59.5 -24.5t24.5 -61.5 q0 -35 -24.5 -59.5t-59.5 -24.5q-37 0 -61.5 24.5t-24.5 59.5z" />
<glyph unicode="&#xcc;" horiz-adv-x="485" d="M-14 1731h145l176 -267h-94zM182 0v1366h117v-1366h-117z" />
<glyph unicode="&#xcd;" horiz-adv-x="485" d="M178 1464l176 267h146l-228 -267h-94zM184 0v1366h117v-1366h-117z" />
<glyph unicode="&#xce;" horiz-adv-x="485" d="M-18 1464l217 271h94l211 -271h-109l-151 185l-150 -185h-112zM184 0v1366h117v-1366h-117z" />
<glyph unicode="&#xcf;" horiz-adv-x="485" d="M20 1595q0 37 24.5 61.5t61.5 24.5q35 0 59.5 -24.5t24.5 -61.5q0 -35 -24.5 -59.5t-59.5 -24.5q-37 0 -61.5 24.5t-24.5 59.5zM184 0v1366h117v-1366h-117zM293 1595q0 37 24.5 61.5t61.5 24.5q35 0 59.5 -24.5t24.5 -61.5q0 -35 -24.5 -59.5t-59.5 -24.5 q-37 0 -61.5 24.5t-24.5 59.5z" />
<glyph unicode="&#xd0;" horiz-adv-x="1265" d="M20 647v96h164v623h351q290 0 461 -177t171 -478q0 -335 -182 -523t-506 -188h-295v647h-164zM301 104h64q204 0 304 22t179 85q201 152 201 500q0 267 -134.5 409t-386.5 142h-227v-519h379v-96h-379v-543z" />
<glyph unicode="&#xd1;" horiz-adv-x="1390" d="M184 0v1366h97l809 -1120v1120h116v-1366h-88l-817 1137v-1137h-117zM397 1534q54 89 93 122.5t90 33.5q29 0 58 -11.5t91 -46.5q74 -41 102 -41q29 0 58 25.5t51 71.5l82 -56q-55 -74 -99.5 -106.5t-95.5 -32.5q-32 0 -58.5 10.5t-82.5 44.5q-63 37 -96 37 q-68 0 -113 -96z" />
<glyph unicode="&#xd2;" horiz-adv-x="1497" d="M96 676q0 326 201 524q92 91 211.5 141t243.5 50q138 0 268 -63t227 -177q152 -180 152 -485q0 -164 -59 -301.5t-169 -229.5q-193 -160 -423 -160q-149 0 -289 70.5t-232 192.5q-131 173 -131 438zM215 684q0 -173 67.5 -310.5t188.5 -214.5t274 -77q111 0 215 46.5 t179 129.5q63 72 102 186t39 230q0 151 -39.5 261t-124.5 193q-74 72 -172 114t-194 42q-152 0 -274 -77.5t-191.5 -214.5t-69.5 -308zM492 1731h145l176 -267h-94z" />
<glyph unicode="&#xd3;" horiz-adv-x="1497" d="M96 676q0 326 201 524q92 91 211.5 141t243.5 50q138 0 268 -63t227 -177q152 -180 152 -485q0 -164 -59 -301.5t-169 -229.5q-193 -160 -423 -160q-149 0 -289 70.5t-232 192.5q-131 173 -131 438zM215 684q0 -173 67.5 -310.5t188.5 -214.5t274 -77q111 0 215 46.5 t179 129.5q63 72 102 186t39 230q0 151 -39.5 261t-124.5 193q-74 72 -172 114t-194 42q-152 0 -274 -77.5t-191.5 -214.5t-69.5 -308zM682 1464l176 267h146l-228 -267h-94z" />
<glyph unicode="&#xd4;" horiz-adv-x="1497" d="M96 676q0 326 201 524q92 91 211.5 141t243.5 50q138 0 268 -63t227 -177q152 -180 152 -485q0 -164 -59 -301.5t-169 -229.5q-193 -160 -423 -160q-149 0 -289 70.5t-232 192.5q-131 173 -131 438zM215 684q0 -173 67.5 -310.5t188.5 -214.5t274 -77q111 0 215 46.5 t179 129.5q63 72 102 186t39 230q0 151 -39.5 261t-124.5 193q-74 72 -172 114t-194 42q-152 0 -274 -77.5t-191.5 -214.5t-69.5 -308zM487 1464l218 271h94l211 -271h-111l-151 185l-150 -185h-111z" />
<glyph unicode="&#xd5;" horiz-adv-x="1497" d="M96 676q0 326 201 524q92 91 211.5 141t243.5 50q138 0 268 -63t227 -177q152 -180 152 -485q0 -164 -59 -301.5t-169 -229.5q-193 -160 -423 -160q-149 0 -289 70.5t-232 192.5q-131 173 -131 438zM215 684q0 -173 67.5 -310.5t188.5 -214.5t274 -77q111 0 215 46.5 t179 129.5q63 72 102 186t39 230q0 151 -39.5 261t-124.5 193q-74 72 -172 114t-194 42q-152 0 -274 -77.5t-191.5 -214.5t-69.5 -308zM449 1534q54 89 93.5 122.5t90.5 33.5q29 0 58 -11.5t91 -46.5q74 -41 103 -41q59 0 108 97l80 -56q-53 -74 -98 -106.5t-94 -32.5 q-33 0 -59.5 10t-82.5 45q-63 37 -96 37q-68 0 -113 -96z" />
<glyph unicode="&#xd6;" horiz-adv-x="1497" d="M96 676q0 326 201 524q92 91 211.5 141t243.5 50q138 0 268 -63t227 -177q152 -180 152 -485q0 -164 -59 -301.5t-169 -229.5q-193 -160 -423 -160q-149 0 -289 70.5t-232 192.5q-131 173 -131 438zM215 684q0 -173 67.5 -310.5t188.5 -214.5t274 -77q111 0 215 46.5 t179 129.5q63 72 102 186t39 230q0 151 -39.5 261t-124.5 193q-74 72 -172 114t-194 42q-152 0 -274 -77.5t-191.5 -214.5t-69.5 -308zM459 1595q0 37 24.5 61.5t61.5 24.5q35 0 59.5 -24.5t24.5 -61.5q0 -35 -24.5 -59.5t-59.5 -24.5q-37 0 -61.5 24.5t-24.5 59.5z M868 1595q0 37 24.5 61.5t61.5 24.5q35 0 59.5 -24.5t24.5 -61.5q0 -35 -24.5 -59.5t-59.5 -24.5q-37 0 -61.5 24.5t-24.5 59.5z" />
<glyph unicode="&#xd7;" d="M133 354l332 332l-330 330l45 47l330 -330l332 330l47 -47l-332 -330l332 -332l-47 -45l-330 330l-332 -332z" />
<glyph unicode="&#xd8;" horiz-adv-x="1490" d="M96 676q0 314 178 504q95 101 219 156t255 55q234 0 436 -172l143 157l51 -43l-147 -164q91 -122 127.5 -229t36.5 -254q0 -328 -195 -520q-92 -92 -211 -141.5t-248 -49.5q-124 0 -218 39t-210 136l-155 -175l-49 45l157 177q-94 112 -132 220t-38 259zM215 684 q0 -122 29.5 -216t95.5 -187l770 854q-171 149 -360 149q-155 0 -277 -76.5t-190 -213.5t-68 -310zM387 231q162 -149 352 -149q238 0 386.5 169t148.5 439q0 123 -26.5 210.5t-92.5 182.5z" />
<glyph unicode="&#xd9;" horiz-adv-x="1300" d="M158 547v819h116v-819q0 -149 24 -231.5t83 -135.5q47 -43 121.5 -70.5t142.5 -27.5q67 0 140 28t126 74q66 62 88.5 136t22.5 233v813h123v-819q0 -156 -25 -245.5t-90 -164.5q-68 -78 -166 -120t-213 -42q-118 0 -219 44.5t-170 127.5q-61 73 -82.5 155.5t-21.5 244.5z M395 1731h146l176 -267h-94z" />
<glyph unicode="&#xda;" horiz-adv-x="1300" d="M158 547v819h116v-819q0 -149 24 -231.5t83 -135.5q47 -43 121.5 -70.5t142.5 -27.5q67 0 140 28t126 74q66 62 88.5 136t22.5 233v813h123v-819q0 -156 -25 -245.5t-90 -164.5q-68 -78 -166 -120t-213 -42q-118 0 -219 44.5t-170 127.5q-61 73 -82.5 155.5t-21.5 244.5z M586 1464l176 267h145l-227 -267h-94z" />
<glyph unicode="&#xdb;" horiz-adv-x="1300" d="M158 547v819h116v-819q0 -149 24 -231.5t83 -135.5q47 -43 121.5 -70.5t142.5 -27.5q67 0 140 28t126 74q66 62 88.5 136t22.5 233v813h123v-819q0 -156 -25 -245.5t-90 -164.5q-68 -78 -166 -120t-213 -42q-118 0 -219 44.5t-170 127.5q-61 73 -82.5 155.5t-21.5 244.5z M391 1464l217 271h94l211 -271h-110l-152 185l-149 -185h-111z" />
<glyph unicode="&#xdc;" horiz-adv-x="1300" d="M158 547v819h116v-819q0 -149 24 -231.5t83 -135.5q47 -43 121.5 -70.5t142.5 -27.5q67 0 140 28t126 74q66 62 88.5 136t22.5 233v813h123v-819q0 -156 -25 -245.5t-90 -164.5q-68 -78 -166 -120t-213 -42q-118 0 -219 44.5t-170 127.5q-61 73 -82.5 155.5t-21.5 244.5z M362 1595q0 37 25 61.5t62 24.5q35 0 59 -24.5t24 -61.5q0 -35 -24 -59.5t-59 -24.5q-37 0 -62 24.5t-25 59.5zM772 1595q0 37 24.5 61.5t61.5 24.5q35 0 59.5 -24.5t24.5 -61.5q0 -35 -24.5 -59.5t-59.5 -24.5q-37 0 -61.5 24.5t-24.5 59.5z" />
<glyph unicode="&#xdd;" horiz-adv-x="1054" d="M-6 1366h137l397 -643l396 643h137l-471 -766v-600h-117v600zM463 1464l176 267h145l-227 -267h-94z" />
<glyph unicode="&#xde;" horiz-adv-x="1062" d="M170 0v1366h117v-184h213q239 0 362 -99q135 -110 135 -307q0 -102 -38.5 -187t-110.5 -140q-57 -44 -135 -64t-195 -20h-231v-365h-117zM287 469h209q117 0 188 25q90 28 144.5 104.5t54.5 175.5q0 102 -56 177.5t-153 103.5q-81 22 -217 22h-170v-608z" />
<glyph unicode="&#xdf;" horiz-adv-x="974" d="M61 846v96h117v123q0 148 82.5 225.5t237.5 77.5q145 0 221 -76q41 -40 65.5 -99t24.5 -120q0 -47 -17 -100t-44 -88q-20 -28 -48.5 -47.5t-83.5 -44.5q60 -14 93.5 -29.5t64.5 -44.5q115 -106 115 -299q0 -195 -101.5 -315.5t-265.5 -120.5q-49 0 -80.5 8.5t-70.5 30.5 l37 83q81 -28 127 -28q110 0 178.5 93t68.5 241q0 317 -299 317v107q90 10 133 43q40 29 63 79.5t23 106.5q0 91 -57.5 149t-148.5 58q-51 0 -98.5 -18.5t-73.5 -49.5q-43 -46 -43 -139v-1065h-103v846h-117z" />
<glyph unicode="&#xe0;" horiz-adv-x="1148" d="M88 471q0 214 122 350.5t312 136.5q222 0 355 -190v174h102v-942h-102v209q-137 -225 -353 -225q-191 0 -313.5 136.5t-122.5 350.5zM195 465q0 -166 94 -275.5t235 -109.5q147 0 251 118.5t104 286.5q0 167 -97 272t-252 105q-85 0 -145 -29t-106 -92q-84 -117 -84 -276 zM324 1337h143l168 -262h-86z" />
<glyph unicode="&#xe1;" horiz-adv-x="1148" d="M88 471q0 214 122 350.5t312 136.5q222 0 355 -190v174h102v-942h-102v209q-137 -225 -353 -225q-191 0 -313.5 136.5t-122.5 350.5zM195 465q0 -166 94 -275.5t235 -109.5q147 0 251 118.5t104 286.5q0 167 -97 272t-252 105q-85 0 -145 -29t-106 -92q-84 -117 -84 -276 zM514 1075l170 262h141l-225 -262h-86z" />
<glyph unicode="&#xe2;" horiz-adv-x="1148" d="M88 471q0 214 122 350.5t312 136.5q222 0 355 -190v174h102v-942h-102v209q-137 -225 -353 -225q-191 0 -313.5 136.5t-122.5 350.5zM195 465q0 -166 94 -275.5t235 -109.5q147 0 251 118.5t104 286.5q0 167 -97 272t-252 105q-85 0 -145 -29t-106 -92q-84 -117 -84 -276 zM311 1075l215 266h99l213 -266h-111l-156 185l-149 -185h-111z" />
<glyph unicode="&#xe3;" horiz-adv-x="1148" d="M88 471q0 214 122 350.5t312 136.5q222 0 355 -190v174h102v-942h-102v209q-137 -225 -353 -225q-191 0 -313.5 136.5t-122.5 350.5zM195 465q0 -166 94 -275.5t235 -109.5q147 0 251 118.5t104 286.5q0 167 -97 272t-252 105q-85 0 -145 -29t-106 -92q-84 -117 -84 -276 zM279 1186q93 125 184 125q40 0 72 -14.5t120 -75.5q37 -23 62 -23q60 0 110 94l72 -51q-91 -141 -184 -141q-31 0 -59.5 13t-112.5 67q-46 30 -80 30q-62 0 -113 -86z" />
<glyph unicode="&#xe4;" horiz-adv-x="1148" d="M88 471q0 214 122 350.5t312 136.5q222 0 355 -190v174h102v-942h-102v209q-137 -225 -353 -225q-191 0 -313.5 136.5t-122.5 350.5zM195 465q0 -166 94 -275.5t235 -109.5q147 0 251 118.5t104 286.5q0 167 -97 272t-252 105q-85 0 -145 -29t-106 -92q-84 -117 -84 -276 zM301 1202q0 34 21 55t55 21q32 0 53 -22t21 -56q0 -31 -21.5 -52.5t-52.5 -21.5q-33 0 -54.5 21.5t-21.5 54.5zM696 1202q0 34 21 55t55 21q32 0 53 -22t21 -56q0 -31 -21.5 -52.5t-52.5 -21.5q-33 0 -54.5 21.5t-21.5 54.5z" />
<glyph unicode="&#xe5;" horiz-adv-x="1148" d="M88 471q0 214 122 350.5t312 136.5q222 0 355 -190v174h102v-942h-102v209q-137 -225 -353 -225q-191 0 -313.5 136.5t-122.5 350.5zM195 465q0 -166 94 -275.5t235 -109.5q147 0 251 118.5t104 286.5q0 167 -97 272t-252 105q-85 0 -145 -29t-106 -92q-84 -117 -84 -276 zM383 1217q0 63 44 106t108 43q63 0 106 -44t43 -110q0 -61 -43.5 -104t-105.5 -43q-65 0 -108.5 43.5t-43.5 108.5zM434 1217q0 -43 29 -72t72 -29q41 0 69.5 28.5t28.5 69.5q0 43 -28 72t-70 29q-43 0 -72 -28t-29 -70z" />
<glyph unicode="&#xe6;" horiz-adv-x="1878" d="M88 473q0 214 121 349.5t313 135.5q143 0 256 -79q52 -38 105 -113v176h102v-176q37 58 66 87t77 54q92 51 215 51q251 0 383 -206q78 -128 78 -267q0 -32 -2 -57h-817q10 -81 28.5 -129t55.5 -94q50 -58 120.5 -91.5t143.5 -33.5q57 0 120 21.5t114 58.5q47 37 94 104 l82 -45q-124 -235 -412 -235q-121 0 -205.5 48.5t-140.5 149.5v-182h-102v205q-132 -221 -355 -221q-195 0 -317.5 136t-122.5 353zM195 463q0 -165 96.5 -274t243.5 -109q148 0 249 116t101 285t-96 275t-250 106q-193 0 -279 -149q-65 -109 -65 -250zM985 524h709 q-19 157 -113.5 247.5t-239.5 90.5q-91 0 -170.5 -40.5t-126.5 -110.5q-28 -41 -40.5 -81t-18.5 -106z" />
<glyph unicode="&#xe7;" horiz-adv-x="923" d="M88 471q0 215 127.5 351t327.5 136q192 0 325 -133l-63 -69q-115 106 -262 106q-155 0 -251.5 -107.5t-96.5 -279.5q0 -177 94 -286t246 -109q156 0 270 117l63 -74q-75 -73 -154.5 -106t-181.5 -33q-196 0 -320 136t-124 351zM324 -383q86 54 133 118.5t73 164.5 l103 -37q-53 -119 -108.5 -182.5t-155.5 -122.5z" />
<glyph unicode="&#xe8;" horiz-adv-x="1087" d="M88 467q0 215 130 353t333 138q196 0 329.5 -133.5t133.5 -330.5q0 -8 -4 -66h-811q6 -67 20 -110t45 -87q51 -72 125 -111.5t160 -39.5q97 0 183.5 50.5t133.5 133.5l84 -45q-53 -106 -162.5 -170.5t-236.5 -64.5q-203 0 -333 135.5t-130 347.5zM203 524h698 q-4 61 -16.5 101.5t-38.5 81.5q-50 72 -128.5 113.5t-168.5 41.5q-91 0 -169 -42.5t-122 -117.5q-42 -66 -55 -178zM293 1337h143l168 -262h-86z" />
<glyph unicode="&#xe9;" horiz-adv-x="1087" d="M88 467q0 215 130 353t333 138q196 0 329.5 -133.5t133.5 -330.5q0 -8 -4 -66h-811q6 -67 20 -110t45 -87q51 -72 125 -111.5t160 -39.5q97 0 183.5 50.5t133.5 133.5l84 -45q-53 -106 -162.5 -170.5t-236.5 -64.5q-203 0 -333 135.5t-130 347.5zM203 524h698 q-4 61 -16.5 101.5t-38.5 81.5q-50 72 -128.5 113.5t-168.5 41.5q-91 0 -169 -42.5t-122 -117.5q-42 -66 -55 -178zM483 1075l170 262h144l-226 -262h-88z" />
<glyph unicode="&#xea;" horiz-adv-x="1087" d="M88 467q0 215 130 353t333 138q196 0 329.5 -133.5t133.5 -330.5q0 -8 -4 -66h-811q6 -67 20 -110t45 -87q51 -72 125 -111.5t160 -39.5q97 0 183.5 50.5t133.5 133.5l84 -45q-53 -106 -162.5 -170.5t-236.5 -64.5q-203 0 -333 135.5t-130 347.5zM203 524h698 q-4 61 -16.5 101.5t-38.5 81.5q-50 72 -128.5 113.5t-168.5 41.5q-91 0 -169 -42.5t-122 -117.5q-42 -66 -55 -178zM283 1075l213 266h98l213 -266h-111l-153 185l-152 -185h-108z" />
<glyph unicode="&#xeb;" horiz-adv-x="1087" d="M88 467q0 215 130 353t333 138q196 0 329.5 -133.5t133.5 -330.5q0 -8 -4 -66h-811q6 -67 20 -110t45 -87q51 -72 125 -111.5t160 -39.5q97 0 183.5 50.5t133.5 133.5l84 -45q-53 -106 -162.5 -170.5t-236.5 -64.5q-203 0 -333 135.5t-130 347.5zM203 524h698 q-4 61 -16.5 101.5t-38.5 81.5q-50 72 -128.5 113.5t-168.5 41.5q-91 0 -169 -42.5t-122 -117.5q-42 -66 -55 -178zM272 1202q0 34 21 55t55 21q32 0 53 -22t21 -56q0 -31 -21.5 -52.5t-52.5 -21.5q-33 0 -54.5 21.5t-21.5 54.5zM668 1202q0 34 20.5 55t54.5 21q32 0 53 -22 t21 -56q0 -31 -21.5 -52.5t-52.5 -21.5q-33 0 -54 21.5t-21 54.5z" />
<glyph unicode="&#xec;" horiz-adv-x="444" d="M-29 1337h144l168 -262h-86zM172 0v942h102v-942h-102z" />
<glyph unicode="&#xed;" horiz-adv-x="444" d="M162 1075l168 262h143l-225 -262h-86zM170 0v942h102v-942h-102z" />
<glyph unicode="&#xee;" horiz-adv-x="444" d="M-41 1075l213 266h100l213 -266h-110l-156 185l-151 -185h-109zM170 0v942h102v-942h-102z" />
<glyph unicode="&#xef;" horiz-adv-x="444" d="M25 1202q0 34 20.5 55t54.5 21q32 0 53 -22t21 -56q0 -31 -21.5 -52.5t-52.5 -21.5q-33 0 -54 21.5t-21 54.5zM170 0v942h102v-942h-102zM270 1202q0 34 21 55t55 21q32 0 53 -22t21 -56q0 -31 -21.5 -52.5t-52.5 -21.5q-33 0 -54.5 21.5t-21.5 54.5z" />
<glyph unicode="&#xf0;" horiz-adv-x="1101" d="M88 473q0 223 129 352q68 65 155.5 100.5t180.5 35.5q74 0 136.5 -20.5t135.5 -68.5q-25 72 -82 160.5t-118 149.5l-211 -119l-37 67l194 109q-43 40 -104.5 87t-97.5 67l47 55q109 -52 235 -166l209 115l39 -66l-188 -104q145 -151 225 -337.5t80 -373.5 q0 -252 -133 -391q-65 -68 -152 -104.5t-184 -36.5q-201 0 -330 137t-129 352zM195 473q0 -175 98 -284t256 -109q160 0 260 111t100 288q0 169 -102 277t-260 108q-155 0 -253.5 -109.5t-98.5 -281.5z" />
<glyph unicode="&#xf1;" horiz-adv-x="1017" d="M170 0v942h102v-141q67 83 136.5 120t156.5 37q130 0 209 -73q44 -40 62 -91.5t18 -138.5v-655h-102v610q0 139 -39 189q-50 63 -160 63q-122 0 -205 -86q-43 -44 -59.5 -87.5t-16.5 -110.5v-578h-102zM213 1186q90 125 184 125q40 0 71.5 -14.5t121.5 -75.5 q35 -23 59 -23q63 0 113 94l69 -51q-91 -141 -182 -141q-31 0 -59.5 13t-112.5 67q-48 30 -80 30q-64 0 -112 -86z" />
<glyph unicode="&#xf2;" horiz-adv-x="1099" d="M88 475q0 228 137 356q64 61 149.5 94t178.5 33q106 0 198 -42.5t158 -122.5q105 -128 105 -322q0 -205 -135 -346t-332 -141q-103 0 -198 43.5t-159 119.5q-102 121 -102 328zM195 469q0 -174 98.5 -281.5t257.5 -107.5q155 0 255.5 110.5t100.5 280.5q0 188 -106 291 q-47 46 -114 73t-134 27q-161 0 -259.5 -108t-98.5 -285zM299 1337h143l168 -262h-86z" />
<glyph unicode="&#xf3;" horiz-adv-x="1099" d="M88 475q0 228 137 356q64 61 149.5 94t178.5 33q106 0 198 -42.5t158 -122.5q105 -128 105 -322q0 -205 -135 -346t-332 -141q-103 0 -198 43.5t-159 119.5q-102 121 -102 328zM195 469q0 -174 98.5 -281.5t257.5 -107.5q155 0 255.5 110.5t100.5 280.5q0 188 -106 291 q-47 46 -114 73t-134 27q-161 0 -259.5 -108t-98.5 -285zM489 1075l170 262h144l-225 -262h-89z" />
<glyph unicode="&#xf4;" horiz-adv-x="1099" d="M88 475q0 228 137 356q64 61 149.5 94t178.5 33q106 0 198 -42.5t158 -122.5q105 -128 105 -322q0 -205 -135 -346t-332 -141q-103 0 -198 43.5t-159 119.5q-102 121 -102 328zM195 469q0 -174 98.5 -281.5t257.5 -107.5q155 0 255.5 110.5t100.5 280.5q0 188 -106 291 q-47 46 -114 73t-134 27q-161 0 -259.5 -108t-98.5 -285zM289 1075l213 266h98l213 -266h-111l-153 185l-152 -185h-108z" />
<glyph unicode="&#xf5;" horiz-adv-x="1099" d="M88 475q0 228 137 356q64 61 149.5 94t178.5 33q106 0 198 -42.5t158 -122.5q105 -128 105 -322q0 -205 -135 -346t-332 -141q-103 0 -198 43.5t-159 119.5q-102 121 -102 328zM195 469q0 -174 98.5 -281.5t257.5 -107.5q155 0 255.5 110.5t100.5 280.5q0 188 -106 291 q-47 46 -114 73t-134 27q-161 0 -259.5 -108t-98.5 -285zM254 1186q93 125 186 125q39 0 71.5 -15t119.5 -75q37 -23 61 -23q60 0 113 94l69 -51q-92 -141 -184 -141q-29 0 -57.5 13t-114.5 67q-46 30 -78 30q-63 0 -114 -86z" />
<glyph unicode="&#xf6;" horiz-adv-x="1099" d="M88 475q0 228 137 356q64 61 149.5 94t178.5 33q106 0 198 -42.5t158 -122.5q105 -128 105 -322q0 -205 -135 -346t-332 -141q-103 0 -198 43.5t-159 119.5q-102 121 -102 328zM195 469q0 -174 98.5 -281.5t257.5 -107.5q155 0 255.5 110.5t100.5 280.5q0 188 -106 291 q-47 46 -114 73t-134 27q-161 0 -259.5 -108t-98.5 -285zM279 1202q0 34 20.5 55t54.5 21q32 0 53 -22t21 -56q0 -31 -21.5 -52.5t-52.5 -21.5q-33 0 -54 21.5t-21 54.5zM674 1202q0 34 21 55t55 21q32 0 52.5 -22t20.5 -56q0 -31 -21 -52.5t-52 -21.5q-33 0 -54.5 21.5 t-21.5 54.5z" />
<glyph unicode="&#xf7;" d="M55 653v66h912v-66h-912zM442 299q0 29 20.5 49.5t49.5 20.5q28 0 48 -20t20 -48q0 -29 -20 -49.5t-48 -20.5q-29 0 -49.5 20t-20.5 48zM442 1069q0 29 20.5 49.5t49.5 20.5q28 0 48 -20t20 -48q0 -29 -20 -49.5t-48 -20.5q-29 0 -49.5 20t-20.5 48z" />
<glyph unicode="&#xf8;" horiz-adv-x="1099" d="M82 18l115 123q-61 83 -86 157.5t-25 174.5q0 234 141 363q134 125 318 125q171 0 299 -107l131 143l49 -51l-127 -139q63 -82 89 -156t26 -172q0 -220 -132 -357.5t-343 -137.5q-165 0 -293 108l-107 -121zM193 471q0 -76 17 -131t58 -117l506 555q-99 86 -231 86 q-155 0 -252.5 -109.5t-97.5 -283.5zM315 170q101 -90 236 -90q154 0 254 112t100 285q0 73 -17.5 128.5t-62.5 123.5z" />
<glyph unicode="&#xf9;" horiz-adv-x="962" d="M139 334v608h103v-608q0 -114 66 -184t173 -70q54 0 105.5 21.5t83.5 56.5q28 31 39.5 70t11.5 106v608h102v-608q0 -93 -19.5 -148t-68.5 -102q-100 -100 -252 -100q-155 0 -249.5 96t-94.5 254zM229 1337h144l168 -262h-86z" />
<glyph unicode="&#xfa;" horiz-adv-x="962" d="M139 334v608h103v-608q0 -114 66 -184t173 -70q54 0 105.5 21.5t83.5 56.5q28 31 39.5 70t11.5 106v608h102v-608q0 -93 -19.5 -148t-68.5 -102q-100 -100 -252 -100q-155 0 -249.5 96t-94.5 254zM420 1075l170 262h143l-225 -262h-88z" />
<glyph unicode="&#xfb;" horiz-adv-x="962" d="M139 334v608h103v-608q0 -114 66 -184t173 -70q54 0 105.5 21.5t83.5 56.5q28 31 39.5 70t11.5 106v608h102v-608q0 -93 -19.5 -148t-68.5 -102q-100 -100 -252 -100q-155 0 -249.5 96t-94.5 254zM219 1075l213 266h98l213 -266h-110l-154 185l-151 -185h-109z" />
<glyph unicode="&#xfc;" horiz-adv-x="962" d="M139 334v608h103v-608q0 -114 66 -184t173 -70q54 0 105.5 21.5t83.5 56.5q28 31 39.5 70t11.5 106v608h102v-608q0 -93 -19.5 -148t-68.5 -102q-100 -100 -252 -100q-155 0 -249.5 96t-94.5 254zM209 1202q0 34 21 55t55 21q32 0 52.5 -22t20.5 -56q0 -31 -21 -52.5 t-52 -21.5q-33 0 -54.5 21.5t-21.5 54.5zM604 1202q0 34 21 55t55 21q32 0 53 -22t21 -56q0 -31 -21.5 -52.5t-52.5 -21.5q-33 0 -54.5 21.5t-21.5 54.5z" />
<glyph unicode="&#xfd;" horiz-adv-x="864" d="M20 942h109l285 -770l315 770h115l-580 -1409h-112l206 502zM371 1075l170 262h143l-225 -262h-88z" />
<glyph unicode="&#xfe;" horiz-adv-x="1140" d="M164 -451v1817h102v-625q72 118 154 167.5t207 49.5q192 0 309 -129t117 -342q0 -226 -118.5 -364.5t-311.5 -138.5q-111 0 -205 49q-48 25 -79 53t-73 84v-621h-102zM266 455q0 -168 94.5 -271.5t247.5 -103.5q152 0 244 108.5t92 288.5q0 181 -88 279q-44 49 -109 77.5 t-133 28.5q-157 0 -252.5 -112t-95.5 -295z" />
<glyph unicode="&#xff;" horiz-adv-x="864" d="M20 942h109l285 -770l315 770h115l-580 -1409h-112l206 502zM160 1202q0 34 21 55t55 21q32 0 52.5 -22t20.5 -56q0 -31 -21 -52.5t-52 -21.5q-33 0 -54.5 21.5t-21.5 54.5zM555 1202q0 34 21 55t55 21q32 0 53 -22t21 -56q0 -31 -21.5 -52.5t-52.5 -21.5 q-33 0 -54.5 21.5t-21.5 54.5z" />
<glyph unicode="&#x152;" horiz-adv-x="2039" d="M96 696q0 203 82 361t231 246t339 88q177 0 323 -93q57 -35 94.5 -74.5t83.5 -111.5v254h680v-104h-563v-519h563v-104h-563v-535h563v-104h-680v276q-49 -76 -85.5 -115.5t-90.5 -76.5q-154 -109 -342 -109q-127 0 -247 52.5t-210 146.5q-85 91 -131.5 228t-46.5 294z M215 692q0 -264 147 -437t371 -173q106 0 207.5 46.5t173.5 129.5q63 70 100 182.5t37 229.5q0 281 -138.5 447.5t-371.5 166.5q-236 0 -381 -163t-145 -429z" />
<glyph unicode="&#x153;" horiz-adv-x="1906" d="M88 467q0 217 129.5 354t333.5 137q162 0 287 -96q47 -37 73 -72t54 -100q34 74 62.5 110.5t78.5 71.5q122 86 272 86q164 0 287.5 -103t155.5 -267q12 -56 12 -160h-817q8 -76 23.5 -121.5t50.5 -87.5q49 -63 126.5 -101t155.5 -38q56 0 118.5 20t106.5 52 q48 34 105 114l78 -43q-34 -57 -59.5 -87.5t-65.5 -59.5q-129 -92 -279 -92q-80 0 -158.5 28.5t-138.5 79.5q-39 32 -62.5 68t-51.5 106q-29 -70 -54 -107t-67 -73q-124 -102 -295 -102q-201 0 -331 135.5t-130 347.5zM195 473q0 -175 100 -284t260 -109q158 0 259 110 t101 281q0 172 -101 281.5t-259 109.5q-160 0 -260 -108.5t-100 -280.5zM1018 524h711q-6 69 -18 109.5t-40 79.5q-47 69 -127 109t-172 40q-165 0 -276 -129q-39 -48 -55.5 -92t-22.5 -117z" />
<glyph unicode="&#x178;" horiz-adv-x="1054" d="M-6 1366h137l397 -643l396 643h137l-471 -766v-600h-117v600zM240 1595q0 37 24.5 61.5t61.5 24.5q35 0 59.5 -24.5t24.5 -61.5q0 -35 -24.5 -59.5t-59.5 -24.5q-37 0 -61.5 24.5t-24.5 59.5zM647 1595q0 37 24.5 61.5t61.5 24.5q35 0 59.5 -24.5t24.5 -61.5 q0 -35 -24.5 -59.5t-59.5 -24.5q-37 0 -61.5 24.5t-24.5 59.5z" />
<glyph unicode="&#x2c6;" d="M250 1075l213 266h100l213 -266h-110l-156 185l-152 -185h-108z" />
<glyph unicode="&#x2dc;" d="M215 1186q93 125 184 125q40 0 71.5 -14.5t121.5 -75.5q37 -23 59 -23q63 0 113 94l72 -51q-94 -141 -185 -141q-31 0 -59.5 13t-112.5 67q-46 30 -80 30q-33 0 -59 -20.5t-53 -65.5z" />
<glyph unicode="&#x2000;" horiz-adv-x="877" />
<glyph unicode="&#x2001;" horiz-adv-x="1755" />
<glyph unicode="&#x2002;" horiz-adv-x="877" />
<glyph unicode="&#x2003;" horiz-adv-x="1755" />
<glyph unicode="&#x2004;" horiz-adv-x="585" />
<glyph unicode="&#x2005;" horiz-adv-x="438" />
<glyph unicode="&#x2006;" horiz-adv-x="292" />
<glyph unicode="&#x2007;" horiz-adv-x="292" />
<glyph unicode="&#x2008;" horiz-adv-x="219" />
<glyph unicode="&#x2009;" horiz-adv-x="351" />
<glyph unicode="&#x200a;" horiz-adv-x="97" />
<glyph unicode="&#x2010;" horiz-adv-x="409" d="M0 446v97h410v-97h-410z" />
<glyph unicode="&#x2011;" horiz-adv-x="409" d="M0 446v97h410v-97h-410z" />
<glyph unicode="&#x2012;" horiz-adv-x="409" d="M0 446v97h410v-97h-410z" />
<glyph unicode="&#x2013;" d="M170 446v97h682v-97h-682z" />
<glyph unicode="&#x2014;" horiz-adv-x="1224" d="M0 446v97h1225v-97h-1225z" />
<glyph unicode="&#x2018;" horiz-adv-x="436" d="M84 981l201 412l80 -37l-191 -420z" />
<glyph unicode="&#x2019;" horiz-adv-x="436" d="M72 971l192 422l88 -45l-200 -412z" />
<glyph unicode="&#x201a;" horiz-adv-x="436" d="M72 -252l192 422l88 -47l-200 -412z" />
<glyph unicode="&#x201c;" horiz-adv-x="790" d="M84 909l221 484l80 -37l-207 -492zM426 909l223 484l78 -37l-205 -490z" />
<glyph unicode="&#x201d;" horiz-adv-x="790" d="M63 901l205 490l94 -41l-221 -486zM403 901l207 492l97 -43l-224 -486z" />
<glyph unicode="&#x201e;" horiz-adv-x="790" d="M63 -322l205 490l94 -41l-221 -485zM403 -322l207 492l97 -43l-224 -485z" />
<glyph unicode="&#x2022;" horiz-adv-x="1366" d="M401 694q0 120 83.5 203.5t203.5 83.5q114 0 195.5 -84t81.5 -201q0 -120 -82 -203t-199 -83t-200 83.5t-83 200.5z" />
<glyph unicode="&#x2026;" horiz-adv-x="1320" d="M137 74q0 36 24 60t60 24q37 0 60.5 -24.5t23.5 -61.5q0 -34 -24.5 -58t-59.5 -24t-59.5 24.5t-24.5 59.5zM578 74q0 36 24 60t60 24t59.5 -24.5t23.5 -61.5q0 -34 -24 -58t-59 -24t-59.5 24.5t-24.5 59.5zM1018 74q0 36 24 60t60 24q37 0 60.5 -24.5t23.5 -61.5 q0 -34 -24.5 -58t-59.5 -24t-59.5 24.5t-24.5 59.5z" />
<glyph unicode="&#x202f;" horiz-adv-x="351" />
<glyph unicode="&#x2039;" horiz-adv-x="516" d="M96 479l213 352h99l-213 -352l213 -338h-99z" />
<glyph unicode="&#x203a;" horiz-adv-x="516" d="M109 141l213 353l-213 337h98l213 -337l-213 -353h-98z" />
<glyph unicode="&#x205f;" horiz-adv-x="438" />
<glyph unicode="&#x20ac;" d="M23 522l40 96h82q-2 25 -2 52q0 42 2 65h-122l40 96h91q16 104 39 175q51 169 170.5 277t257.5 108q98 0 196.5 -54t171.5 -149l-53 -113q-61 101 -144 155t-176 54q-124 0 -218.5 -125t-123.5 -328h566l-43 -96h-533q-2 -18 -2 -53q0 -44 4 -64h484l-43 -96h-433 q29 -201 122 -320.5t222 -119.5q95 0 180 53.5t142 149.5v-160q-71 -71 -155.5 -110.5t-166.5 -39.5q-140 0 -262.5 108.5t-169.5 274.5q-21 79 -32 164h-131z" />
<glyph unicode="&#x2122;" horiz-adv-x="1671" d="M29 1290v76h532v-76h-221v-743h-88v743h-223zM717 547v819h71l340 -653l347 653h69v-819h-88v610l-328 -620l-323 620v-610h-88z" />
<glyph unicode="&#x25fc;" horiz-adv-x="942" d="M0 0v942h942v-942h-942z" />
<glyph unicode="&#xfb04;" horiz-adv-x="1566" d="M43 846v96h141v166q0 124 60 190q67 70 166 70q20 0 36 -2v-86q-94 -10 -125 -44t-34 -128v-166h159v-96h-159v-846h-103v846h-141zM604 846v96h141v166q0 124 60 190q67 70 166 70q21 0 37 -2v-86q-94 -11 -125.5 -44.5t-34.5 -127.5v-166h160v-96h-160v-846h-103v846 h-141zM1292 0v1366h103v-1366h-103z" />
</font>
</defs>
</svg>
